<?xml version="1.0" encoding="UTF-8"?>
<svg version="1.1" xmlns="http://www.w3.org/2000/svg" width="466" height="671">
<path d="M0 0 C17.82783816 16.87014438 26.40394547 41.39249132 27.11741114 65.62541676 C27.1581575 69.49055762 27.16656363 73.35505141 27.16387939 77.22033691 C27.16646674 78.71741674 27.16948092 80.21449588 27.1728828 81.71157408 C27.18091272 85.80859586 27.18274012 89.90560008 27.18348026 94.0026288 C27.18533784 98.42819973 27.1928887 102.85376169 27.19961548 107.27932739 C27.21317094 116.94904774 27.21921921 126.61876393 27.22362614 136.2884922 C27.22639335 142.3322572 27.23063158 148.37602062 27.23513031 154.41978455 C27.24731948 171.1702184 27.25761939 187.92065098 27.2610054 204.67108917 C27.26133475 206.27776595 27.26133475 206.27776595 27.26167075 207.91690084 C27.26188903 208.9905062 27.26210731 210.06411156 27.2623322 211.17025042 C27.26277566 213.34559663 27.26322222 215.52094285 27.26367188 217.69628906 C27.26400402 219.31484154 27.26400402 219.31484154 27.26434287 220.96609205 C27.26828859 238.4395421 27.28573729 255.91295038 27.3090314 273.38638431 C27.3327824 291.34830009 27.34520896 309.31019495 27.34637332 327.27212667 C27.34728799 337.34809235 27.35298768 347.4240036 27.37119293 357.49995422 C27.38664461 366.08182051 27.39168462 374.66361555 27.38345483 383.24549311 C27.37956617 387.61824079 27.38038995 391.99084522 27.39451218 396.36357498 C27.40735899 400.37837264 27.40596048 404.39292099 27.39392146 408.40771884 C27.39198293 409.84852579 27.3949559 411.28935108 27.40376583 412.7301324 C27.55298771 438.81724928 20.11838769 461.88261998 1.6796875 480.84375 C-23.28844899 504.47430775 -59.28106635 511.4162224 -92.5625 510.52685547 C-125.5375393 509.25294113 -157.2409162 503.25143832 -181.1015625 478.62109375 C-197.81473458 459.12239299 -201.31682271 433.82320715 -201.23052979 409.07754517 C-201.2328416 407.60400946 -201.2360229 406.13047492 -201.23998427 404.65694273 C-201.24824227 400.65744933 -201.24424854 396.65805282 -201.23801184 392.65855932 C-201.23345095 388.32579779 -201.24048904 383.99305191 -201.24597168 379.66029358 C-201.25482926 371.19144173 -201.25295982 362.72262548 -201.2471464 354.25377227 C-201.24261494 347.3650035 -201.2420234 340.47624466 -201.24419403 333.58747482 C-201.2445005 332.60403571 -201.24480696 331.6205966 -201.24512272 330.6073563 C-201.24576222 328.60899501 -201.24641065 326.61063372 -201.2470679 324.61227243 C-201.2527607 305.9064744 -201.24623012 287.20069603 -201.23546717 268.49490122 C-201.22653541 252.47640868 -201.22808265 236.45794514 -201.23730469 220.43945312 C-201.24803073 201.80003933 -201.25220855 183.16064274 -201.24608016 164.52122629 C-201.24544312 162.52993226 -201.24481438 160.53863824 -201.24419403 158.54734421 C-201.2437312 157.07804209 -201.2437312 157.07804209 -201.24325903 155.5790571 C-201.24153887 148.70691218 -201.24443253 141.83477826 -201.24915314 134.96263504 C-201.25478809 126.57567346 -201.25319103 118.18874927 -201.24259165 109.80179192 C-201.23736948 105.53016782 -201.2352185 101.25860585 -201.24188995 96.98698235 C-201.2918855 61.97529184 -200.17513954 28.65455592 -174.8515625 1.80859375 C-133.48288607 -38.13554148 -42.6129098 -36.74105215 0 0 Z M-123.2265625 57.87109375 C-134.65533494 72.04406296 -137.13012893 88.1615173 -137.11700439 105.89854431 C-137.11997552 107.15505391 -137.12294664 108.41156351 -137.1260078 109.70614916 C-137.13404437 113.18253433 -137.1358655 116.65889881 -137.13660526 120.13529217 C-137.13846172 123.88943539 -137.14601213 127.64356802 -137.15274048 131.39770508 C-137.16630168 139.60264718 -137.17234538 147.80758437 -137.17675114 156.01253581 C-137.17951793 161.14134432 -137.18375614 166.27015096 -137.18825531 171.39895821 C-137.20044627 185.6144076 -137.21074516 199.82985551 -137.2141304 214.04531002 C-137.21434997 214.95453106 -137.21456953 215.86375209 -137.21479575 216.80052528 C-137.21501403 217.71186016 -137.21523231 218.62319504 -137.2154572 219.56214613 C-137.21590066 221.40869963 -137.21634722 223.25525314 -137.21679688 225.10180664 C-137.2170183 226.01775113 -137.21723973 226.93369561 -137.21746787 227.87739599 C-137.22141199 242.70360964 -137.23885497 257.52977402 -137.2621564 272.35596865 C-137.28591664 287.59787673 -137.29833442 302.83976014 -137.29949832 318.08168703 C-137.30041258 326.63126183 -137.30610178 335.18077247 -137.32431793 343.73032951 C-137.33978228 351.01378643 -137.34480234 358.29715935 -137.33657983 365.58062958 C-137.33269529 369.29098692 -137.33349412 373.00117547 -137.34763718 376.71151161 C-137.56154531 411.13122925 -137.56154531 411.13122925 -119.9140625 439.73046875 C-109.54260037 449.27442061 -98.02729443 453.8501697 -83.96875 453.640625 C-70.40896233 452.70241515 -60.17312244 446.50571994 -50.9765625 436.734375 C-39.65601828 423.71132706 -37.82393717 408.50081739 -37.83612061 391.81678772 C-37.83314948 390.54394391 -37.83017836 389.2711001 -37.8271172 387.95968527 C-37.8190797 384.43769386 -37.81725945 380.91572286 -37.81651974 377.39372337 C-37.81466344 373.59050001 -37.80711312 369.7872871 -37.80038452 365.98406982 C-37.78682268 357.67169312 -37.78077952 349.35932125 -37.77637386 341.04693532 C-37.77360719 335.85112294 -37.769369 330.6553124 -37.76486969 325.45950127 C-37.75267867 311.05875929 -37.74237978 296.65801879 -37.7389946 282.25727177 C-37.73877503 281.33618029 -37.73855547 280.4150888 -37.73832925 279.46608546 C-37.73811097 278.54285079 -37.73789269 277.61961612 -37.7376678 276.66840464 C-37.73722434 274.79773525 -37.73677778 272.92706587 -37.73632812 271.05639648 C-37.7361067 270.12848954 -37.73588527 269.20058259 -37.73565713 268.24455725 C-37.73171292 253.22434811 -37.71426969 238.2041876 -37.6909686 223.18399722 C-37.66720953 207.74320698 -37.65479064 192.30244109 -37.65362668 176.86163229 C-37.65271235 168.20027513 -37.64702156 159.53898131 -37.62880707 150.87764168 C-37.6133443 143.49903078 -37.60832174 136.12050279 -37.61654517 128.74187876 C-37.62043026 124.98291584 -37.61962813 121.22411954 -37.60548782 117.46517754 C-37.5156958 92.05762477 -37.91829973 69.64335305 -56.9765625 50.43359375 C-79.6561421 30.95697903 -104.3254949 36.99602431 -123.2265625 57.87109375 Z " fill="#0B084F" transform="translate(236.9765625,148.56640625)"/>
<path d="M0 0 C1.24701691 -0.00912415 2.49403381 -0.01824829 3.77883911 -0.02764893 C4.89592758 -0.03791107 6.01301605 -0.04817322 7.16395569 -0.05874634 C13.67019466 0.16539236 17.50789429 2.02730394 21.962677 6.73162842 C28.75036516 14.51892861 28.64440434 23.15748538 28.587677 32.98162842 C28.60765747 34.20559326 28.62763794 35.42955811 28.64822388 36.69061279 C28.64268499 46.98740389 26.51088064 54.68342478 19.150177 62.04412842 C14.56526008 64.82303831 11.14750071 65.42030204 5.81887817 65.42889404 C5.11069443 65.43426682 4.40251068 65.43963959 3.67286682 65.44517517 C2.14406743 65.4549136 0.61521301 65.45790927 -0.91361427 65.45481873 C-3.34058818 65.45031583 -5.76684238 65.46441121 -8.19374084 65.48321533 C-13.34992334 65.51990253 -18.50602926 65.53368401 -23.662323 65.54412842 C-29.63108224 65.55624561 -35.59948891 65.57799079 -41.56809044 65.62413025 C-43.94606631 65.6376048 -46.32358543 65.63354675 -48.70158386 65.62872314 C-57.48096281 65.66062801 -64.91288559 66.08196597 -72.662323 70.73162842 C-78.61658214 77.02613094 -79.99914329 84.20362545 -79.97731495 92.61289978 C-79.9797807 93.94780814 -79.9797807 93.94780814 -79.98229626 95.30968434 C-79.9866394 98.31908157 -79.98382741 101.32843102 -79.98112488 104.33782959 C-79.98282591 106.50634931 -79.98497509 108.67486873 -79.98753613 110.8433876 C-79.9921441 115.57244413 -79.99355186 120.30148755 -79.99257088 125.03054619 C-79.99098194 132.72404879 -79.99617201 140.41753833 -80.00219727 148.11103821 C-80.00991583 158.55553569 -80.01485635 169.00003129 -80.01785287 179.44453114 C-80.02299269 197.07861666 -80.03845491 214.71268191 -80.05742935 232.34675744 C-80.06145101 236.09867123 -80.06537187 239.85058512 -80.0692957 243.60249901 C-80.07007836 244.35046542 -80.07086102 245.09843184 -80.07166739 245.86906391 C-80.07325298 247.3847879 -80.07483781 248.90051189 -80.07642188 250.41623588 C-80.07801316 251.93759802 -80.07960741 253.45896015 -80.08120461 254.98032229 C-80.10004179 272.9285101 -80.11712417 290.87669927 -80.13278198 308.82489014 C-80.13381536 310.00313277 -80.13381536 310.00313277 -80.13486962 311.20517829 C-80.15712497 336.66869437 -80.16896805 362.13220459 -80.17644854 387.59572883 C-80.18421448 413.77192871 -80.20527834 439.94808855 -80.24199115 466.12426446 C-80.24716478 469.82196835 -80.25217214 473.51967245 -80.25707054 477.21737671 C-80.25852098 478.30898543 -80.25852098 478.30898543 -80.26000072 479.42264686 C-80.27513928 491.13156884 -80.27603649 502.8404507 -80.27141341 514.54937979 C-80.26702759 526.3215013 -80.27726346 538.09353498 -80.30150048 549.86563283 C-80.31417703 556.24260898 -80.32032736 562.61941821 -80.30908394 568.99640083 C-80.29892084 574.83567864 -80.30715417 580.6746323 -80.3299469 586.51387179 C-80.33494388 588.62499521 -80.33320822 590.7361477 -80.32401422 592.84725702 C-80.22570455 617.34998393 -80.22570455 617.34998393 -88.349823 626.10662842 C-94.67597217 631.98707163 -101.21775164 631.41655495 -109.43893433 631.41473389 C-111.64504957 631.41909428 -113.84914122 631.45539755 -116.05490112 631.49334717 C-117.47221205 631.49921877 -118.8895324 631.50318587 -120.30685425 631.50506592 C-121.58536255 631.51328369 -122.86387085 631.52150146 -124.18112183 631.52996826 C-129.92263515 630.76962944 -133.52354178 628.40055239 -137.599823 624.23162842 C-142.16778858 617.76034384 -143.29353312 612.76028597 -143.22620392 605.01719379 C-143.23045504 604.12631586 -143.23470615 603.23543792 -143.23908609 602.31756368 C-143.24970391 599.32890891 -143.2389616 596.34071533 -143.22836304 593.35206604 C-143.2316536 591.18905444 -143.23626707 589.02604451 -143.2420907 586.86303824 C-143.2543201 580.91614738 -143.24792811 574.96939877 -143.23858571 569.02250803 C-143.23179764 562.60992475 -143.24231775 556.19736792 -143.25086975 549.78479004 C-143.26344542 538.670829 -143.26546511 527.55690799 -143.26051331 516.44294167 C-143.25352961 500.36090026 -143.26616135 484.27891639 -143.28402048 468.19688555 C-143.29231669 460.70253251 -143.29965347 453.20817854 -143.30673981 445.71382427 C-143.3074503 444.96357352 -143.3081608 444.21332276 -143.30889283 443.44033713 C-143.32557991 425.5839051 -143.33286875 407.72747116 -143.33859253 389.87103271 C-143.33884644 389.08978961 -143.33910034 388.30854651 -143.33936194 387.50362938 C-143.34321173 375.62129583 -143.34657209 363.73896215 -143.349823 351.85662842 C-143.35328779 339.19411205 -143.3569341 326.53159576 -143.36105347 313.86907959 C-143.36130375 313.08901768 -143.36155404 312.30895577 -143.36181191 311.50525562 C-143.36757902 293.689632 -143.37603756 275.87401515 -143.39290619 258.05839825 C-143.39361445 257.30921457 -143.39432272 256.5600309 -143.39505244 255.78814468 C-143.40218551 248.30776636 -143.40978778 240.82738865 -143.41809016 233.34701153 C-143.43581226 217.28591885 -143.44533208 201.22488101 -143.43816786 185.16377895 C-143.43306908 173.45263695 -143.43844337 161.74154608 -143.45402825 150.03041217 C-143.4620869 143.68773503 -143.46519608 137.34515418 -143.45520592 131.00247765 C-143.44613292 125.19358677 -143.45085217 119.3848748 -143.46642035 113.57599922 C-143.46960492 111.47708697 -143.46774131 109.37815955 -143.46025497 107.27925823 C-142.92396042 87.44400492 -142.92396042 87.44400492 -152.03341675 70.56756592 C-155.2051144 67.90743241 -157.86953725 66.79422858 -162.00816059 66.79358864 C-163.24675358 66.78609059 -163.24675358 66.78609059 -164.51036865 66.77844107 C-165.41220624 66.78310429 -166.31404383 66.7877675 -167.24320984 66.79257202 C-168.20540693 66.78960188 -169.16760403 66.78663174 -170.15895861 66.7835716 C-173.39166686 66.7759169 -176.6241942 66.78243171 -179.85690308 66.78875732 C-182.1712303 66.78600812 -184.48555658 66.78232865 -186.79988098 66.77778625 C-191.78827501 66.76966626 -196.77662419 66.76750782 -201.76502419 66.76973343 C-209.6518636 66.7725623 -217.53861313 66.75823035 -225.4254303 66.74075317 C-236.48266142 66.71730408 -247.53988855 66.69843541 -258.59713745 66.68572998 C-259.29882436 66.68491961 -260.00051127 66.68410924 -260.72346141 66.68327431 C-270.67825018 66.67205611 -280.63303335 66.66677244 -290.58782759 66.66388719 C-291.28860492 66.6636832 -291.98938225 66.66347921 -292.71139526 66.66326904 C-293.76127862 66.66296914 -293.76127862 66.66296914 -294.83237175 66.66266318 C-306.50899419 66.65892867 -318.18552702 66.63960134 -329.86210746 66.60817468 C-337.7029628 66.58793689 -345.54355681 66.58560231 -353.38442767 66.59645486 C-358.26318313 66.59906 -363.14178612 66.58506728 -368.02050209 66.56637383 C-370.28320256 66.56104645 -372.54593102 66.56255788 -374.80862045 66.57140923 C-377.89794071 66.58251951 -380.98622811 66.56911057 -384.07548523 66.5496521 C-384.97063066 66.55877676 -385.86577609 66.56790141 -386.78804713 66.57730258 C-392.6365307 66.50563633 -396.03068263 65.39958749 -400.849823 62.04412842 C-408.52417266 53.89409592 -410.32210032 43.76058215 -410.2013855 32.94403076 C-409.88291401 23.61325853 -407.38075687 14.97987224 -400.849823 8.04412842 C-394.34202986 3.12498893 -388.21627622 3.47942218 -380.26974487 3.52996826 C-378.88194022 3.52445142 -377.49414169 3.51715636 -376.10635471 3.50823975 C-373.10085438 3.49279002 -370.09569751 3.48996792 -367.09016609 3.49686813 C-362.22383594 3.5079864 -357.35781998 3.49129786 -352.49153137 3.4715271 C-345.46119965 3.44577057 -338.4309502 3.43315342 -331.40057373 3.42938232 C-320.2794786 3.42281844 -309.15857569 3.38775887 -298.03756714 3.34490967 C-297.10635249 3.34133029 -296.17513784 3.3377509 -295.21570456 3.33406305 C-290.48201672 3.31573203 -285.74833109 3.29690738 -281.01464653 3.27774811 C-277.18402839 3.2623449 -273.35340845 3.24793807 -269.52278328 3.23439789 C-231.52017903 3.09968032 -193.52599025 2.65713154 -155.52783728 2.07813263 C-151.79753974 2.02151803 -148.06722689 1.96593578 -144.33691406 1.91033936 C-132.93452589 1.74022972 -121.53215139 1.56928207 -110.12983704 1.39428711 C-86.72637464 1.03560391 -63.3224934 0.72699867 -39.91792679 0.45037842 C-37.33718588 0.41972076 -34.75645217 0.38851861 -32.17572021 0.3571167 C-28.27178976 0.30964618 -24.36784981 0.26308092 -20.46389771 0.2174263 C-18.45638566 0.19386258 -16.44888046 0.16971738 -14.44137573 0.14553833 C-9.62762621 0.09103774 -4.81373943 0.05517727 0 0 Z " fill="#0B084F" transform="translate(428.8498229980469,24.95587158203125)"/>
</svg>
